<?xml version="1.0" standalone="no"?>
<svg xmlns="http://www.w3.org/2000/svg" viewBox="0 0 110.248 29" width="110.248" height="29"><g fill="#24292f" color="#24292f" transform="translate(0, 0) scale(0.58)"><svg width="24.0" height="50.0" x="0.0" y="0.0" viewBox="0 0 24 50"><path fill="currentColor" fill-rule="nonzero" d="M6.12 23.8l6.06-6.22 6.06 6.23 5.36-5.5-6.06-6.23 6.06-6.22-5.36-5.5-6.06 6.23L6.12.36.77 5.86l6.06 6.22-6.06 6.23 5.35 5.49zm0-21.5l6.06 6.23 6.06-6.23 3.46 3.56-6.06 6.22 6.06 6.23-3.46 3.56-6.06-6.23-6.06 6.22-3.46-3.56 6.06-6.23-6.06-6.22L6.12 2.3zM23.6 31.61l-6.06 6.21 6.06 6.23-5.36 5.5-6.06-6.23-6.06 6.23-5.35-5.5 6.06-6.22-6.06-6.22 5.35-5.5 6.06 6.23 6.06-6.23 5.36 5.5zM8.73 37.84l-6.06 6.22 3.46 3.56 6.06-6.22 6.06 6.22 3.46-3.56-6.06-6.22 6.06-6.22-3.46-3.56-6.06 6.23-6.06-6.23-3.46 3.56 6.06 6.22z"></path></svg></g><line x1="25.92" y1="1" x2="25.92" y2="28" stroke="#000000" stroke-linecap="round"></line><path fill="#000000" fill-rule="nonzero" d="M11.33 2.76L12.96 2.76L12.96 13.85Q12.96 17.06 11.39 18.61Q9.82 20.16 6.65 20.16L6.65 20.16Q4.90 20.16 3.32 19.64Q1.75 19.13 0.77 18.22L0.77 18.22L1.63 16.92Q2.54 17.74 3.85 18.19Q5.16 18.65 6.60 18.65L6.60 18.65Q9 18.65 10.13 17.53Q11.26 16.42 11.26 14.06L11.26 14.06L11.26 12.46Q10.46 13.66 9.18 14.28Q7.90 14.90 6.34 14.90L6.34 14.90Q4.56 14.90 3.11 14.12Q1.66 13.34 0.83 11.94Q0 10.54 0 8.76L0 8.76Q0 6.98 0.83 5.59Q1.66 4.20 3.10 3.43Q4.54 2.66 6.34 2.66L6.34 2.66Q7.94 2.66 9.24 3.31Q10.54 3.96 11.33 5.18L11.33 5.18L11.33 2.76ZM6.50 13.39Q7.87 13.39 8.98 12.80Q10.08 12.22 10.69 11.16Q11.30 10.10 11.30 8.76L11.30 8.76Q11.30 7.42 10.69 6.37Q10.08 5.33 8.99 4.74Q7.90 4.15 6.50 4.15L6.50 4.15Q5.14 4.15 4.04 4.73Q2.95 5.30 2.34 6.36Q1.73 7.42 1.73 8.76L1.73 8.76Q1.73 10.10 2.34 11.16Q2.95 12.22 4.04 12.80Q5.14 13.39 6.50 13.39L6.50 13.39ZM22.90 15.50Q21.07 15.50 19.61 14.68Q18.14 13.85 17.30 12.38Q16.46 10.92 16.46 9.07L16.46 9.07Q16.46 7.22 17.30 5.76Q18.14 4.30 19.61 3.48Q21.07 2.66 22.90 2.66L22.90 2.66Q24.72 2.66 26.18 3.48Q27.65 4.30 28.48 5.76Q29.30 7.22 29.30 9.07L29.30 9.07Q29.30 10.92 28.48 12.38Q27.65 13.85 26.18 14.68Q24.72 15.50 22.90 15.50L22.90 15.50ZM22.90 13.99Q24.24 13.99 25.31 13.38Q26.38 12.77 26.98 11.64Q27.58 10.51 27.58 9.07L27.58 9.07Q27.58 7.63 26.98 6.50Q26.38 5.38 25.31 4.76Q24.24 4.15 22.90 4.15L22.90 4.15Q21.55 4.15 20.48 4.76Q19.42 5.38 18.80 6.50Q18.19 7.63 18.19 9.07L18.19 9.07Q18.19 10.51 18.80 11.64Q19.42 12.77 20.48 13.38Q21.55 13.99 22.90 13.99L22.90 13.99ZM38.40 13.39L39 14.62Q38.52 15.05 37.82 15.28Q37.13 15.50 36.36 15.50L36.36 15.50Q34.58 15.50 33.62 14.54Q32.66 13.58 32.66 11.83L32.66 11.83L32.66 0L34.37 0L34.37 2.76L38.18 2.76L38.18 4.20L34.37 4.20L34.37 11.74Q34.37 12.86 34.92 13.45Q35.47 14.04 36.53 14.04L36.53 14.04Q37.68 14.04 38.40 13.39L38.40 13.39ZM43.73 5.23Q44.33 3.96 45.52 3.31Q46.70 2.66 48.46 2.66L48.46 2.66L48.46 4.32L48.05 4.30Q46.06 4.30 44.93 5.52Q43.80 6.74 43.80 8.95L43.80 8.95L43.80 15.38L42.10 15.38L42.10 2.76L43.73 2.76L43.73 5.23ZM61.51 15.38L59.57 15.38L55.56 10.10L51.53 15.38L49.61 15.38L54.60 8.90L49.85 2.76L51.77 2.76L55.56 7.70L59.35 2.76L61.22 2.76L56.47 8.90L61.51 15.38ZM74.33 15.38L72.38 15.38L68.38 10.10L64.34 15.38L62.42 15.38L67.42 8.90L62.66 2.76L64.58 2.76L68.38 7.70L72.17 2.76L74.04 2.76L69.29 8.90L74.33 15.38Z" transform="translate(35.92, 4.42)"></path></svg>