<?xml version="1.0" standalone="no"?>
<svg xmlns="http://www.w3.org/2000/svg" viewBox="0 0 147.936 147.936" width="147.936" height="147.936"><rect x="22.725385780973276" y="22.725385780973276" transform="rotate(45, 73.968, 73.968)" fill="none" stroke="#24292f" stroke-width="3" width="99.48522843805345" height="99.48522843805345"></rect><g fill="#000000" color="#000000" transform="translate(64.368 64.937) scale(0.8)"><svg width="24.0" height="50.0" x="0.0" y="0.0" viewBox="0 0 24 50"><path fill="currentColor" fill-rule="nonzero" d="M6.12 23.8l6.06-6.22 6.06 6.23 5.36-5.5-6.06-6.23 6.06-6.22-5.36-5.5-6.06 6.23L6.12.36.77 5.86l6.06 6.22-6.06 6.23 5.35 5.49zm0-21.5l6.06 6.23 6.06-6.23 3.46 3.56-6.06 6.22 6.06 6.23-3.46 3.56-6.06-6.23-6.06 6.22-3.46-3.56 6.06-6.23-6.06-6.22L6.12 2.3zM23.6 31.61l-6.06 6.21 6.06 6.23-5.36 5.5-6.06-6.23-6.06 6.23-5.35-5.5 6.06-6.22-6.06-6.22 5.35-5.5 6.06 6.23 6.06-6.23 5.36 5.5zM8.73 37.84l-6.06 6.22 3.46 3.56 6.06-6.22 6.06 6.22 3.46-3.56-6.06-6.22 6.06-6.22-3.46-3.56-6.06 6.23-6.06-6.23-3.46 3.56 6.06 6.22z"></path></svg></g><path fill="#000000" fill-rule="nonzero" d="M15.54 16.02L15.54 9.97L17.53 9.97L17.53 19.77L15.71 19.77L15.71 18.12Q14.59 19.01 13.09 19.47Q11.59 19.94 9.88 19.94L9.88 19.94Q7.25 19.94 5.00 18.76Q2.74 17.58 1.37 15.34Q0 13.10 0 10.02L0 10.02Q0 7.17 1.34 4.89Q2.69 2.60 5.04 1.30Q7.39 0 10.36 0L10.36 0Q12.60 0 14.48 0.71Q16.35 1.43 17.64 2.83L17.64 2.83L16.35 4.14Q14.03 1.85 10.44 1.85L10.44 1.85Q8.06 1.85 6.15 2.90Q4.23 3.95 3.14 5.82Q2.04 7.70 2.04 10.02L2.04 10.02Q2.04 12.52 3.15 14.35Q4.26 16.18 6.09 17.15Q7.92 18.12 10.02 18.12L10.02 18.12Q11.56 18.12 13.01 17.60Q14.45 17.08 15.54 16.02L15.54 16.02Z" transform="translate(65.148, 37)"></path></svg>